<?xml version="1.0" encoding="UTF-8"?>
<svg width="83.047mm" height="32.999mm" version="1.1" viewBox="0 0 83.047 32.999" xmlns="http://www.w3.org/2000/svg" xmlns:cc="http://creativecommons.org/ns#" xmlns:dc="http://purl.org/dc/elements/1.1/" xmlns:rdf="http://www.w3.org/1999/02/22-rdf-syntax-ns#">
 <metadata>
  <rdf:RDF>
   <cc:Work rdf:about="">
    <dc:format>image/svg+xml</dc:format>
    <dc:type rdf:resource="http://purl.org/dc/dcmitype/StillImage"/>
    <dc:title/>
   </cc:Work>
  </rdf:RDF>
 </metadata>
 <g transform="translate(65.746 -31.98)" fill="#fff">
  <g>
   <path d="m-48.221 55.358q-0.74414 0.18604-1.4759 0.26045-0.71934 0.08682-1.4759 0.08682-2.158 0-3.4727-1.1906-1.3022-1.1782-1.4139-3.3858-0.29766 0.04961-0.58291 0.06201-0.27285 0.0248-0.5333 0.0248-1.9472 0-3.5471-0.64492-1.5875-0.64492-2.7037-1.8728t-1.7239-3.0138q-0.59531-1.7859-0.59531-4.0804 0-2.2572 0.59531-4.0432 0.59531-1.7983 1.7363-3.0758 1.0914-1.2154 2.7037-1.8604 1.6247-0.64492 3.5347-0.64492 1.9844 0 3.5595 0.65732 1.5875 0.64492 2.6913 1.8479 1.1286 1.2402 1.7239 3.0386 0.60772 1.7983 0.60772 4.0804 0 3.3858-1.3891 5.7051-1.3767 2.3192-3.7083 3.2494 0.04961 1.4139 0.66973 2.1952t2.2572 0.78135q0.5085 0 1.203-0.16123 0.70693-0.14883 1.0046-0.27285h0.33486zm-2.927-13.754q0-3.5967-1.6123-5.5438-1.6123-1.9596-4.4028-1.9596-2.8153 0-4.4276 1.9596-1.5999 1.9472-1.5999 5.5438 0 3.6339 1.6371 5.5687 1.6371 1.9224 4.3904 1.9224 2.7533 0 4.378-1.9224 1.6371-1.9348 1.6371-5.5687z" style="white-space:pre"/>
   <path d="m-33.4 50.831h-2.3316v-1.5379q-1.1782 0.93018-2.2572 1.4263-1.079 0.49609-2.3812 0.49609-2.1828 0-3.3982-1.327-1.2154-1.3395-1.2154-3.9191v-8.9917h2.3316v7.8879q0 1.0542 0.09922 1.8107 0.09922 0.74414 0.42168 1.2774 0.33486 0.5457 0.86816 0.79375 0.5333 0.24805 1.5503 0.24805 0.90537 0 1.972-0.47129 1.079-0.47129 2.0092-1.203v-10.344h2.3316z" style="white-space:pre"/>
   <path d="m-14.698 45.151q0 1.3767-0.5209 2.4309-0.5209 1.0542-1.4015 1.7363-1.0418 0.81856-2.2944 1.1658-1.2402 0.34727-3.1626 0.34727h-6.5484v-18.467h5.4694q2.0216 0 3.0262 0.14883 1.0046 0.14883 1.9224 0.62012 1.017 0.5333 1.4759 1.3767 0.45889 0.83096 0.45889 1.9968 0 1.3146-0.66973 2.2448-0.66973 0.91777-1.7859 1.4759v0.09922q1.8728 0.38447 2.9518 1.6495 1.079 1.2526 1.079 3.175zm-4.13-8.322q0-0.66973-0.22324-1.1286-0.22324-0.45889-0.71934-0.74414-0.58291-0.33486-1.4139-0.40928-0.83096-0.08682-2.0588-0.08682h-2.927v5.333h3.175q1.1534 0 1.8355-0.11162 0.68213-0.12402 1.265-0.49609 0.58291-0.37207 0.81855-0.95498 0.24805-0.59531 0.24805-1.4015zm1.5751 8.4212q0-1.1162-0.33486-1.7735-0.33486-0.65732-1.2154-1.1162-0.59531-0.31006-1.4511-0.39688-0.84336-0.09922-2.0588-0.09922h-3.8571v6.8709h3.2494q1.6123 0 2.6417-0.16123 1.0294-0.17363 1.6867-0.62012 0.69453-0.48369 1.017-1.1038 0.32246-0.62012 0.32246-1.5999z" style="white-space:pre"/>
   <path d="m-8.8933 34.659h-2.6293v-2.4185h2.6293zm-0.14883 16.173h-2.3316v-13.853h2.3316z" style="white-space:pre"/>
   <path d="m2.7897 50.707q-0.65732 0.17363-1.4387 0.28525-0.76895 0.11162-1.3767 0.11162-2.1208 0-3.2246-1.141-1.1038-1.141-1.1038-3.6587v-7.367h-1.5751v-1.9596h1.5751v-3.9812h2.3316v3.9812h4.8121v1.9596h-4.8121v6.3128q0 1.0914 0.049609 1.7115 0.049609 0.60771 0.34727 1.141 0.27285 0.49609 0.74414 0.73174 0.48369 0.22324 1.4635 0.22324 0.57051 0 1.1906-0.16123 0.62012-0.17363 0.89297-0.28525h0.12402z" style="white-space:pre"/>
   <path d="m15.515 46.838q0 1.8976-1.5751 3.113-1.5627 1.2154-4.2788 1.2154-1.5379 0-2.8277-0.35967-1.2774-0.37207-2.1456-0.80615v-2.6169h0.12402q1.1038 0.83096 2.4557 1.3271 1.3519 0.48369 2.5921 0.48369 1.5379 0 2.4061-0.49609 0.86816-0.49609 0.86816-1.5627 0-0.81855-0.47129-1.2402-0.47129-0.42168-1.8107-0.71934-0.49609-0.11162-1.3022-0.26045-0.79375-0.14883-1.4511-0.32246-1.8231-0.48369-2.5921-1.4139-0.75654-0.94258-0.75654-2.3068 0-0.85576 0.34727-1.6123 0.35967-0.75654 1.079-1.3519 0.69453-0.58291 1.7611-0.91777 1.079-0.34726 2.4061-0.34726 1.2402 0 2.5053 0.31006 1.2774 0.29766 2.1208 0.73174v2.4929h-0.12402q-0.89297-0.65732-2.1704-1.1038-1.2774-0.45889-2.5053-0.45889-1.2774 0-2.158 0.49609-0.88057 0.48369-0.88057 1.4511 0 0.85576 0.5333 1.2898 0.5209 0.43408 1.6867 0.70693 0.64492 0.14883 1.4387 0.29766 0.80615 0.14883 1.3395 0.27285 1.6247 0.37207 2.5053 1.2774 0.88057 0.91777 0.88057 2.4309z" style="white-space:pre"/>
  </g>
  <g transform="matrix(.89643 0 0 1 -11.423 -1.5754)" stroke-width=".26458" aria-label="no frills QR codes">
   <path d="m-42.924 65.059v-3.847h0.64172v0.83995q0.2755-0.44349 0.66188-0.69548 0.38974-0.25198 0.77947-0.25198 0.3427 0 0.62156 0.18143 0.27886 0.18143 0.38974 0.47373 0.11423 0.2923 0.11423 1.149v2.1503h-0.64172v-2.2275q0-0.55772-0.05376-0.73243-0.05376-0.17807-0.19823-0.2923-0.14111-0.11423-0.3091-0.11423-0.33934 0-0.72571 0.32254-0.38638 0.31918-0.63836 0.79963v2.2443z"/>
   <path d="m-37.108 65.167q-0.82651 0-1.3238-0.57788t-0.49725-1.4548q0-0.88026 0.49725-1.4548t1.3238-0.57452q0.82315 0 1.317 0.57452 0.49725 0.57452 0.49725 1.4548 0 0.8769-0.49725 1.4548-0.49389 0.57788-1.317 0.57788zm0-0.53421q0.51069 0 0.81307-0.39982 0.30574-0.39982 0.30574-1.0987 0-0.69548-0.30574-1.0953-0.30238-0.39982-0.81307-0.39982-0.51741 0-0.82315 0.39982-0.30238 0.39982-0.30238 1.0953 0 0.69884 0.30238 1.0987 0.30574 0.39982 0.82315 0.39982z"/>
   <path d="m-29.377 65.059v-2.9936h-0.85675v-0.53421h0.85675v-0.17807q0-0.76267 0.17135-1.1255 0.17135-0.36622 0.53085-0.6014 0.3595-0.23519 0.95418-0.23519 0.44685 0 0.90714 0.09408v0.60812q-0.49725-0.16463-0.88362-0.16463-0.30574 0-0.54093 0.11423t-0.36958 0.37294q-0.13103 0.25534-0.13103 0.86683v0.24862h1.5287v0.53421h-1.5287v2.9936z"/>
   <path d="m-25.717 65.059v-3.847h0.64172v0.83995q0.29902-0.47709 0.6854-0.71228 0.38974-0.23518 0.86347-0.23518 0.34942 0 0.69884 0.10751v1.3876h-0.6182v-0.88026q-0.16127-0.02688-0.25534-0.02688-0.35614 0-0.7022 0.28222-0.34606 0.28222-0.67196 0.85003v2.2343z"/>
   <path d="m-20.734 65.059v-3.3128h-1.0684v-0.53421h1.7101v3.3128h1.0718v0.53421zm-0.10751-5.2379q0-0.21503 0.14783-0.32254 0.14783-0.10751 0.27886-0.10751 0.13439 0 0.28222 0.10751 0.14783 0.10751 0.14783 0.32254 0 0.21503-0.14783 0.32254-0.14783 0.10751-0.28222 0.10751-0.13103 0-0.27886-0.10751-0.14783-0.10751-0.14783-0.32254z"/>
   <path d="m-16.547 65.059v-5.0229h-1.1524v-0.53757h1.7908v5.0262h1.2028v0.53421z"/>
   <path d="m-12.317 65.059v-5.0229h-1.1524v-0.53757h1.7908v5.0262h1.2028v0.53421z"/>
   <path d="m-9.0773 64.858v-0.68204q0.38638 0.25198 0.81643 0.35614 0.43005 0.10079 0.73243 0.10079 0.48381 0 0.69548-0.15455 0.21503-0.15791 0.21503-0.3931 0-0.15455-0.097434-0.26542-0.10079-0.11087-0.49725-0.27214l-0.22175-0.09071-0.44349-0.17471q-0.71564-0.27886-0.90378-0.51741-0.18815-0.23518-0.18815-0.57116 0-0.47709 0.36622-0.78283 0.36622-0.30574 1.1927-0.30574 0.61484 0 1.1658 0.17807v0.58124q-0.635-0.22511-1.1927-0.22511-0.40653 0-0.635 0.14447-0.22847 0.14111-0.22847 0.35278 0 0.20831 0.19823 0.33262 0.19823 0.12431 0.64172 0.28558l0.43341 0.15791q0.59804 0.21839 0.83995 0.47373 0.23855 0.25534 0.23855 0.635 0 0.50061-0.38302 0.82315-0.38302 0.32254-1.2297 0.32254-0.73579 0-1.5153-0.3091z"/>
   <path d="m1.3348 65.16q0.2419 0.39982 0.43005 0.55436 0.19151 0.15455 0.49389 0.22847 0.30238 0.07728 0.67196 0.07728h0.060476v0.53421h-0.16127q-0.66524 0-0.96762-0.13775-0.30238-0.13776-0.57116-0.42334-0.26878-0.28558-0.49053-0.77947-0.63164-0.067195-0.99786-0.39646-0.36622-0.33262-0.58124-1.0247-0.21167-0.69212-0.21167-1.4884 0-1.1658 0.46365-1.9588 0.46701-0.79291 1.4078-0.79291 0.90714 0 1.3876 0.76603 0.48045 0.76603 0.48045 2.0696 0 0.62156-0.12431 1.1894-0.12431 0.56444-0.43341 0.9945-0.3091 0.43005-0.85675 0.58796zm-0.45357-5.0733q-0.50397 0-0.83995 0.57116-0.33598 0.57116-0.33598 1.7269 0 1.1591 0.33598 1.7303 0.33598 0.5678 0.83995 0.5678 0.50061 0 0.83659-0.5678 0.33598-0.57116 0.33598-1.7303 0-1.1558-0.33598-1.7269-0.33598-0.57116-0.83659-0.57116z"/>
   <path d="m4.2047 62.788v2.2712h-0.69548v-5.3454h1.4279q0.69884 0 1.0281 0.14447 0.33262 0.14111 0.51405 0.43005t0.18143 0.62156q0 0.31246-0.12095 0.62492-0.12095 0.31246-0.33262 0.56108-0.21167 0.24526-0.61148 0.46701l1.5489 2.4963h-0.82987l-1.4145-2.2712zm0-0.53757h0.97434q0.32926-0.17807 0.48717-0.36286 0.16127-0.18815 0.2419-0.39646 0.083995-0.21167 0.083995-0.41997 0-0.3763-0.2755-0.59804-0.27214-0.22175-0.99114-0.22175h-0.52077z"/>
   <path d="m15.188 64.948q-0.64508 0.21839-1.2263 0.21839t-1.0315-0.26542q-0.44685-0.26878-0.69884-0.72572-0.25198-0.45693-0.25198-1.0382 0-0.8769 0.57116-1.4548 0.57116-0.57788 1.3775-0.57788 0.59468 0 1.2599 0.22511v0.61484q-0.67196-0.30574-1.2028-0.30574-0.35278 0-0.66188 0.17471-0.3091 0.17135-0.48045 0.54093-0.16799 0.36958-0.16799 0.75931 0 0.51741 0.3259 0.99114 0.3259 0.47037 1.0214 0.47037 0.21167 0 0.41326-0.02688 0.20495-0.03024 0.75259-0.21503z"/>
   <path d="m17.766 65.167q-0.82651 0-1.3238-0.57788t-0.49725-1.4548q0-0.88026 0.49725-1.4548t1.3238-0.57452q0.82315 0 1.317 0.57452 0.49725 0.57452 0.49725 1.4548 0 0.8769-0.49725 1.4548-0.49389 0.57788-1.317 0.57788zm0-0.53421q0.51069 0 0.81307-0.39982 0.30574-0.39982 0.30574-1.0987 0-0.69548-0.30574-1.0953-0.30238-0.39982-0.81307-0.39982-0.51741 0-0.82315 0.39982-0.30238 0.39982-0.30238 1.0953 0 0.69884 0.30238 1.0987 0.30574 0.39982 0.82315 0.39982z"/>
   <path d="m22.981 64.196q-0.2923 0.48045-0.70556 0.72572-0.40989 0.24526-0.75595 0.24526-0.48045 0-0.86683-0.41661-0.38302-0.41661-0.38302-1.2666 0-0.6686 0.25534-1.1927 0.25534-0.52413 0.68204-0.82987 0.42669-0.30574 1.0583-0.30574 0.18143 0 0.551 0.04032 0.05376 0.0067 0.16463 0.0168v-1.7135h0.64508v5.5605h-0.64508zm0-0.76267v-1.6497q-0.3427-0.09071-0.635-0.09071-0.59132 0-0.98778 0.46029-0.3931 0.45693-0.3931 1.2465 0 0.57116 0.21503 0.86347 0.21503 0.28894 0.49053 0.28894 0.29902 0 0.66188-0.30238 0.36286-0.30238 0.64844-0.81643z"/>
   <path d="m27.843 64.804q-0.76939 0.36622-1.4548 0.36622-0.52077 0-0.93066-0.2587-0.4099-0.2587-0.65852-0.73915-0.24526-0.48045-0.24526-1.0281 0-0.52749 0.23519-1.0113 0.23518-0.48717 0.65516-0.75595 0.41997-0.27214 0.93738-0.27214 0.6854 0 1.0987 0.49053 0.41661 0.48717 0.41661 1.5085v0.13775h-2.6542q0 0.39982 0.16799 0.72908 0.16799 0.32926 0.44013 0.49725 0.27214 0.16463 0.6182 0.16463 0.62156 0 1.3742-0.41326zm-2.5602-2.0428h1.9184v-0.09407q0-0.47037-0.23182-0.74923-0.23183-0.27886-0.61484-0.27886-0.38974 0-0.67532 0.28558-0.28558 0.28222-0.39646 0.83659z"/>
   <path d="m28.915 64.858v-0.68204q0.38638 0.25198 0.81643 0.35614 0.43005 0.10079 0.73244 0.10079 0.48381 0 0.69548-0.15455 0.21503-0.15791 0.21503-0.3931 0-0.15455-0.09743-0.26542-0.10079-0.11087-0.49725-0.27214l-0.22175-0.09071-0.44349-0.17471q-0.71564-0.27886-0.90378-0.51741-0.18815-0.23518-0.18815-0.57116 0-0.47709 0.36622-0.78283t1.1927-0.30574q0.61484 0 1.1658 0.17807v0.58124q-0.635-0.22511-1.1927-0.22511-0.40654 0-0.635 0.14447-0.22847 0.14111-0.22847 0.35278 0 0.20831 0.19823 0.33262 0.19823 0.12431 0.64172 0.28558l0.43341 0.15791q0.59804 0.21839 0.83995 0.47373 0.23854 0.25534 0.23854 0.635 0 0.50061-0.38302 0.82315-0.38302 0.32254-1.2297 0.32254-0.73579 0-1.5153-0.3091z"/>
  </g>
  <rect x="-42.986" y="54.914" width="55.927" height="1.8005" stroke-dasharray="31.75, 7.9375, 3.96875, 7.9375" stroke-linecap="round" stroke-linejoin="round" stroke-width="3.9688"/>
 </g>
</svg>
